HIERARCHY
ROOT hip
{
  OFFSET 0 0 0
  CHANNELS 6 Xposition Yposition Zposition Zrotation Yrotation Xrotation
  JOINT abdomen
  {
    OFFSET 0 20.6881 -0.73152
    CHANNELS 3 Zrotation Xrotation Yrotation
    JOINT chest
    {
      OFFSET 0 11.7043 -0.48768
      CHANNELS 3 Zrotation Xrotation Yrotation
      JOINT neck
      {
        OFFSET 0 22.1894 -2.19456
        CHANNELS 3 Zrotation Xrotation Yrotation
        JOINT head
        {
          OFFSET -0.24384 7.07133 1.2192
          CHANNELS 3 Zrotation Xrotation Yrotation
          JOINT leftEye
          {
            OFFSET 4.14528 8.04674 8.04672
            CHANNELS 3 Zrotation Xrotation Yrotation
            End Site
            {
              OFFSET 1 0 0
            }
          }
          JOINT rightEye
          {
            OFFSET -3.6576 8.04674 8.04672
            CHANNELS 3 Zrotation Xrotation Yrotation
            End Site
            {
              OFFSET 1 0 0
            }
          }
        }
      }
      JOINT rCollar
      {
        OFFSET -2.68224 19.2634 -4.8768
        CHANNELS 3 Zrotation Xrotation Yrotation
        JOINT rShldr
        {
          OFFSET -8.77824 -1.95073 1.46304
          CHANNELS 3 Zrotation Xrotation Yrotation
          JOINT rForeArm
          {
            OFFSET -28.1742 -1.7115 0.48768
            CHANNELS 3 Zrotation Xrotation Yrotation
            JOINT rHand
            {
              OFFSET -22.5879 0.773209 7.07136
              CHANNELS 3 Zrotation Xrotation Yrotation
              JOINT rThumb1
              {
                OFFSET -1.2192 -0.487915 3.41376
                CHANNELS 3 Zrotation Xrotation Yrotation
                JOINT rThumb2
                {
                  OFFSET -3.37035 -0.52449 3.41376
                  CHANNELS 3 Zrotation Xrotation Yrotation
                  End Site
                  {
                    OFFSET -1.78271 -1.18214 1.43049
                  }
                }
              }
              JOINT rIndex1
              {
                OFFSET -7.75947 0.938293 5.60832
                CHANNELS 3 Zrotation Xrotation Yrotation
                JOINT rIndex2
                {
                  OFFSET -2.54057 -0.884171 1.56538
                  CHANNELS 3 Zrotation Xrotation Yrotation
                  End Site
                  {
                    OFFSET -1.62519 -0.234802 1.16502
                  }
                }
              }
              JOINT rMid1
              {
                OFFSET -8.24714 1.18213 3.41376
                CHANNELS 3 Zrotation Xrotation Yrotation
                JOINT rMid2
                {
                  OFFSET -3.10165 -0.590103 1.0647
                  CHANNELS 3 Zrotation Xrotation Yrotation
                  End Site
                  {
                    OFFSET -2.48547 -0.328903 0.83742
                  }
                }
              }
              JOINT rRing1
              {
                OFFSET -8.82822 0.546677 1.51678
                CHANNELS 3 Zrotation Xrotation Yrotation
                JOINT rRing2
                {
                  OFFSET -2.60934 -0.819778 -0.0198488
                  CHANNELS 3 Zrotation Xrotation Yrotation
                  End Site
                  {
                    OFFSET -2.33842 -0.294052 0.168128
                  }
                }
              }
              JOINT rPinky1
              {
                OFFSET -8.27202 -0.0477905 -0.4584
                CHANNELS 3 Zrotation Xrotation Yrotation
                JOINT rPinky2
                {
                  OFFSET -1.82734 -0.647385 -0.700984
                  CHANNELS 3 Zrotation Xrotation Yrotation
                  End Site
                  {
                    OFFSET -1.69225 -0.51767 -0.607171
                  }
                }
              }
            }
          }
        }
      }
      JOINT lCollar
      {
        OFFSET 2.68224 19.2634 -4.8768
        CHANNELS 3 Zrotation Xrotation Yrotation
        JOINT lShldr
        {
          OFFSET 8.77824 -1.95073 1.46304
          CHANNELS 3 Zrotation Xrotation Yrotation
          JOINT lForeArm
          {
            OFFSET 28.1742 -1.7115 0.48768
            CHANNELS 3 Zrotation Xrotation Yrotation
            JOINT lHand
            {
              OFFSET 22.5879 0.773209 7.07136
              CHANNELS 3 Zrotation Xrotation Yrotation
              JOINT lThumb1
              {
                OFFSET 1.2192 -0.487915 3.41376
                CHANNELS 3 Zrotation Xrotation Yrotation
                JOINT lThumb2
                {
                  OFFSET 3.37035 -0.52449 3.41376
                  CHANNELS 3 Zrotation Xrotation Yrotation
                  End Site
                  {
                    OFFSET 1.78271 -1.18214 1.43049
                  }
                }
              }
              JOINT lIndex1
              {
                OFFSET 7.75947 0.938293 5.60832
                CHANNELS 3 Zrotation Xrotation Yrotation
                JOINT lIndex2
                {
                  OFFSET 2.54057 -0.884171 1.56538
                  CHANNELS 3 Zrotation Xrotation Yrotation
                  End Site
                  {
                    OFFSET 1.62519 -0.234802 1.16502
                  }
                }
              }
              JOINT lMid1
              {
                OFFSET 8.24714 1.18213 3.41376
                CHANNELS 3 Zrotation Xrotation Yrotation
                JOINT lMid2
                {
                  OFFSET 3.10165 -0.590103 1.0647
                  CHANNELS 3 Zrotation Xrotation Yrotation
                  End Site
                  {
                    OFFSET 2.48547 -0.328903 0.83742
                  }
                }
              }
              JOINT lRing1
              {
                OFFSET 8.82822 0.546677 1.51678
                CHANNELS 3 Zrotation Xrotation Yrotation
                JOINT lRing2
                {
                  OFFSET 2.60934 -0.819778 -0.0198488
                  CHANNELS 3 Zrotation Xrotation Yrotation
                  End Site
                  {
                    OFFSET 2.33842 -0.294052 0.168128
                  }
                }
              }
              JOINT lPinky1
              {
                OFFSET 8.27202 -0.0477905 -0.4584
                CHANNELS 3 Zrotation Xrotation Yrotation
                JOINT lPinky2
                {
                  OFFSET 1.82734 -0.647385 -0.700984
                  CHANNELS 3 Zrotation Xrotation Yrotation
                  End Site
                  {
                    OFFSET 1.69225 -0.51767 -0.607171
                  }
                }
              }
            }
          }
        }
      }
    }
  }
  JOINT rButtock
  {
    OFFSET -8.77824 4.35084 1.2192
    CHANNELS 3 Zrotation Xrotation Yrotation
    JOINT rThigh
    {
      OFFSET 0 -1.70687 -2.19456
      CHANNELS 3 Zrotation Xrotation Yrotation
      JOINT rShin
      {
        OFFSET 0 -36.8199 0.73152
        CHANNELS 3 Zrotation Xrotation Yrotation
        JOINT rFoot
        {
          OFFSET 0.73152 -45.1104 -5.12064
          CHANNELS 3 Zrotation Xrotation Yrotation
          End Site
          {
            OFFSET -1.1221 -3.69964 12.103
          }
        }
      }
    }
  }
  JOINT lButtock
  {
    OFFSET 8.77824 4.35084 1.2192
    CHANNELS 3 Zrotation Xrotation Yrotation
    JOINT lThigh
    {
      OFFSET 0 -1.70687 -2.19456
      CHANNELS 3 Zrotation Xrotation Yrotation
      JOINT lShin
      {
        OFFSET 0 -36.8199 0.73152
        CHANNELS 3 Zrotation Xrotation Yrotation
        JOINT lFoot
        {
          OFFSET -0.73152 -45.1104 -5.12064
          CHANNELS 3 Zrotation Xrotation Yrotation
          End Site
          {
            OFFSET 1.1221 -3.69964 12.103
          }
        }
      }
    }
  }
}
MOTION
Frames:	4
Frame Time:	0.00833333
0.0 0.0 0.0 0.0 0.0 0.0 0.0 0.0 0.0 0.0 0.0 0.0 0.0 0.0 0.0 0.0 0.0 0.0 0.0 0.0 0.0 0.0 0.0 0.0 0.0 0.0 0.0 0.0 0.0 0.0 0.0 0.0 0.0 0.0 0.0 0.0 0.0 0.0 0.0 0.0 0.0 0.0 0.0 0.0 0.0 0.0 0.0 0.0 0.0 0.0 0.0 0.0 0.0 0.0 0.0 0.0 0.0 0.0 0.0 0.0 0.0 0.0 0.0 0.0 0.0 0.0 0.0 0.0 0.0 0.0 0.0 0.0 0.0 0.0 0.0 0.0 0.0 0.0 0.0 0.0 0.0 0.0 0.0 0.0 0.0 0.0 0.0 0.0 0.0 0.0 0.0 0.0 0.0 0.0 0.0 0.0 0.0 0.0 0.0 0.0 0.0 0.0 0.0 0.0 0.0 0.0 0.0 0.0 0.0 0.0 0.0 0.0 0.0 0.0 0.0 0.0 0.0 0.0 0.0 0.0 0.0 0.0 0.0 0.0 0.0 0.0 0.0 0.0 0.0 0.0 0.0 0.0
1.157 -2.4006 -5.9251 47.532263 19.321496 -150.570774 -156.534395 -27.992522 91.577214 110.923177 75.479062 -79.649355 131.567999 3.061052 -121.556699 -102.140152 49.164692 -96.894164 171.214081 -3.916835 47.988421 -22.469961 -15.695698 69.512642 36.362963 -14.368701 142.357128 104.011282 -36.742462 -178.028353 136.53356 7.264632 0.137175 -155.68168 60.350766 1.553834 -106.766181 -6.151611 -113.91664 178.509834 63.263532 -122.13199 -6.63025 6.484849 -159.483748 127.298777 -26.077341 -150.519205 48.370769 -32.567012 -165.128949 -55.213133 3.767973 -54.652629 -107.840617 -31.45167 61.278989 84.832652 -2.518325 -137.50398 -19.154851 -12.022849 -8.597286 141.904234 -8.80612 33.644756 115.796842 44.682272 -30.888732 73.750249 -40.7028 48.333695 146.523535 -0.053997 15.696736 39.046046 57.641153 -162.652402 -165.332105 -72.661901 -63.191133 -83.64177 -46.5671 -71.172853 -93.920465 15.129646 64.833274 -112.418231 -22.146974 -174.583676 -89.095608 -34.440001 -77.515725 -128.901758 -0.041901 2.543556 -49.091467 -28.92771 108.45695 -128.965189 -81.082545 67.3796 158.471906 -48.522893 -95.387264 13.73628 10.20341 -145.789091 92.19639 -3.225176 14.054997 -86.542233 -3.607843 -59.300316 -152.538603 -9.139159 40.841909 106.712874 -58.420801 80.870439 -87.430023 71.425129 -180.0 -130.395945 -14.899002 95.621835 -173.258549 -10.772482 -78.570809 -26.731482 20.079229 168.842216
2.2508 -2.5612 -8.777899999999999 48.679745 18.967243 -148.025173 -155.385823 -25.578834 12.156555 -106.093965 23.646314 122.930765 124.958246 9.893317 -78.466695 -177.010932 75.84719 -20.152417 166.366536 -5.424833 43.239082 -17.775873 -12.964118 72.000777 -141.257085 -57.805541 8.441004 -67.324752 -0.691683 -102.590273 -122.725446 9.624876 -6.066834 94.146588 -68.600733 -55.713501 -12.679062 28.478028 -121.924742 69.856946 57.348116 55.605717 161.419942 27.948636 -84.747007 143.290682 58.545868 -5.21936 -142.790062 58.402665 -45.608131 -25.594743 11.980261 91.301475 -107.81908 -32.004382 62.83978 0.471165 50.131097 -112.275476 -8.839619 34.4442 15.461986 -45.550096 -40.176594 144.172293 89.908269 25.229729 -6.092474 57.956374 -14.051061 11.550899 0.014781 72.440912 160.463834 0.261415 -24.150312 -140.2641 61.861151 65.901708 -61.544963 146.950732 -63.196955 -131.818716 30.468608 -24.387055 157.986708 -2.941289 12.40804 -117.22284 -18.925453 -30.087751 -48.685552 -121.931508 37.930214 -57.208702 -80.208777 -33.592694 84.3229 -19.738628 -0.47825 -173.740223 88.943633 -42.306017 -131.284902 -67.906914 70.135907 -89.751347 25.553165 14.665144 -43.086225 12.763338 -41.797445 8.775554 -157.528035 6.357572 -84.762162 89.351197 1.566153 97.909778 -140.199913 10.796032 -77.329449 158.11005 1.381009 0.097587 158.461875 -4.599726 -42.465224 24.38475 -3.150746 -18.781114
3.5158 -2.6747 -11.5564 49.084116 18.342774 -146.645717 -152.40613 -28.773935 -132.644673 128.583984 -50.811582 -28.810032 141.400536 19.955282 114.851395 -77.32805 -74.81323 -92.372782 163.913684 -5.664739 38.59188 -14.544084 -10.769399 72.903717 -155.688058 -32.007077 1.363215 99.71942 -1.46463 -60.51493 78.10701 -57.144334 -71.488756 179.003595 19.577916 9.946039 -2.460086 29.695379 -123.787996 21.394429 1.656094 129.618168 174.830436 35.927684 -89.305203 177.991802 -5.002485 -22.042981 -153.58081 41.517059 -41.143237 137.482211 -38.212409 35.984821 -81.042283 -40.329444 73.081581 -105.911049 23.401903 -28.592238 -25.602133 -29.359069 -3.244877 131.546479 -66.331336 0.099433 -126.468218 23.101984 -161.158792 100.891435 -3.010422 148.661297 143.157648 83.129512 13.596844 3.610045 -18.496565 -140.547335 14.850806 65.864297 -10.922954 47.624648 28.270166 -26.1956 116.31586 62.990335 161.553053 14.547942 -14.804191 146.208254 126.936078 19.648093 -79.741877 93.849416 15.731458 85.192155 -150.714922 10.956732 36.274496 -25.617286 -1.989355 -170.917218 -131.857993 -17.571508 -82.548691 -152.582532 3.181583 -117.954112 26.081763 13.750337 -44.025858 14.669959 -43.913808 101.04178 178.055878 28.522376 47.760547 86.808476 -1.380871 88.626802 -110.819216 -31.262084 -31.502414 111.130769 -27.626732 -127.619241 -169.523679 9.742433 -95.466377 -117.522925 -45.573451 135.102033
